Directed By Anees Bazmee

A Ronnie Screwvala Production

Akshay Kumar as Kishen, Sonam Kapoor as Sajana & Bobby Deol as Raj

In

Thank You (2011) Cam Rip
*FIRST ON NET*
*DAYN EXCLUSIVE*


Format                           : AVI
Format/Info                      : Audio Video Interleave
File size                        : 734 MiB
Duration                         : 2h 7mn
Overall bit rate                 : 808 Kbps
Writing application              : Lavf52.39.1

Video
ID                               : 0
Format                           : xvid
Codec ID                         : xvid
Duration                         : 2h 7mn
Bit rate                         : 732 Kbps
Width                            : 624 pixels
Height                           : 272 pixels
Display aspect ratio             : 2.25:1
Frame rate                       : 25.000 fps
Bits/(Pixel*Frame)               : 0.173
Stream size                      : 665 MiB (91%)

Audio
ID                               : 1
Format                           : MPEG Audio
Format version                   : Version 1
Format profile                   : Layer 3
Mode                             : Joint stereo
Mode extension                   : MS Stereo
Codec ID                         : 55
Codec ID/Hint                    : MP3
Duration                         : 2h 7mn
Bit rate mode                    : Constant
Bit rate                         : 64.0 Kbps
Channel(s)                       : 2 channels
Sampling rate                    : 44.1 KHz
Compression mode                 : Lossy
Stream size                      : 58.1 MiB (8%)
Alignment                        : Aligned on interleaves
Interleave, duration             : 26 ms (0.65 video frame)
Interleave, preload duration     : 26 ms

